<svg xmlns="http://www.w3.org/2000/svg" xmlns:xlink="http://www.w3.org/1999/xlink" viewBox="0 0 502 504"><defs><style>.cls-1{fill:none;}.cls-2{clip-path:url(#clip-path);}.cls-3{fill:#385a7f;}.cls-4{fill:#c64938;}.cls-5{fill:#c7e4ef;}.cls-6{fill:#fff;}.cls-7{fill:#92b0cc;}.cls-8{fill:#252538;}.cls-9{fill:#f2a48f;}.cls-10{fill:#ffccb0;}.cls-11{fill:#36384f;}.cls-12{fill:#f77b59;}.cls-13{fill:#b52c2c;}.cls-14{fill:url(#linear-gradient);}.cls-15{fill:#64b2bf;}.cls-16{fill:#498c9b;}</style><clipPath id="clip-path" transform="translate(2)"><path class="cls-1" d="M67,62c10.74-9,356-16.68,375-1.68S460.58,410.55,439,431c-19,18-355.17,25-371,1C40.2,389.86,44.49,80.76,67,62Z"/></clipPath><linearGradient id="linear-gradient" x1="160.49" y1="367.26" x2="161.58" y2="367.26" gradientTransform="translate(-108.03 109.37) rotate(-22.78)" gradientUnits="userSpaceOnUse"><stop offset="0" stop-color="#36384f"/><stop offset="1" stop-color="#252538"/></linearGradient></defs><g id="BACKGROUND"><rect class="cls-1" width="500" height="500" transform="translate(502 0) rotate(90)"/></g><g id="OBJECTS"><g id="ONLINE_CLASS" data-name="ONLINE CLASS"><g class="cls-2"><rect class="cls-3" x="-2" y="4" width="500" height="500" transform="translate(504 6) rotate(90)"/><polygon class="cls-4" points="500 333 0 378.33 0 504 500 504 500 333"/><polygon class="cls-5" points="193 376 95.5 391.08 164 441 253 412.1 193 376"/><polygon class="cls-6" points="263.38 397 214.57 363.67 108.33 373.86 162.5 418.5 263.38 397"/><polygon class="cls-7" points="122.65 386.88 123.9 386.69 162.5 418.5 122.65 386.88"/><path class="cls-8" d="M242.25,391.57c-2.71-1.59-5.16.15-7.67,1.48-2,1.07-2.46-1.13-4.18-1.13a18.37,18.37,0,0,0-4,.94c-6.79,1.69-14.1,3.5-20.11,7.21-.55.34-.05,1.2.5.86,5.58-3.43,12.29-5.14,18.58-6.77,1.41-.37,2.84-.72,4.27-1.05,1.59-.38,2,1,3.37,1.29,3.09.66,5.36-4,8.78-2A.5.5,0,0,0,242.25,391.57Z" transform="translate(2)"/><path class="cls-8" d="M219.65,390.85a.49.49,0,0,0,.78-.1c1.53-2.9,4.08-6.61,7.22-2.9a.49.49,0,0,0,.7,0l1.1-1.07.7-.64a1.72,1.72,0,0,0,.31-.17.49.49,0,0,0,.52-.34l.07-.19a.5.5,0,0,0-.23-.56l-.06,0a.49.49,0,0,0-.51,0,8.11,8.11,0,0,0-1.85,1.56c-.83.8-.41.24-1.24-.49a3.91,3.91,0,0,0-1.41-.71c-2.57-.93-4.75,2.43-5.87,4.46-1.6-1.61-3.6-2.9-6-2.41-2.77.57-5.09,2.35-7.57,3.61-3.78,1.93-8.08,1.06-12.11.58s-8-.86-11.84.58a.5.5,0,0,0-.22.83,8.08,8.08,0,0,1,1.09,3.34,14.18,14.18,0,0,0-5.64-.88c-2.55.15-5,.94-7.6,1.19-.64.06-.64,1.06,0,1,2-.2,3.95-.58,5.92-.95a13.9,13.9,0,0,1,8,.93.5.5,0,0,0,.61-.61c-.53-1.36-.56-2.82-1.22-4.09,3.29-1.06,6.71-.82,10.13-.44,3.07.34,6.65,1.23,9.74.64a22.54,22.54,0,0,0,7-3.08C213.72,387.82,216.64,387.56,219.65,390.85Z" transform="translate(2)"/><path class="cls-8" d="M165.37,396.52c-3.64,1.19-7.85-1.45-10.72,2.13-.4.49.3,1.21.7.7,2.67-3.31,6.87-.75,10.28-1.87C166.24,397.28,166,396.32,165.37,396.52Z" transform="translate(2)"/><path class="cls-8" d="M182.26,386.48c2.37-.68,4.57-1.81,7.12-1.5a.52.52,0,0,0,.43-.25c3.13-4.4,10.59-1.26,15-2.84a30.56,30.56,0,0,1,9.82-1.69,34,34,0,0,0,5.13-.51c1.62-.3,3.11-1.11,4.77-1.19.64,0,.65-1,0-1a18.62,18.62,0,0,0-4.13,1,36.65,36.65,0,0,1-8.24.76,22.44,22.44,0,0,0-6.23,1.13,16.56,16.56,0,0,1-4.65,1.18c-3.34.17-6.47-.75-9.72.66-1.47.64-2.05,1.62-3.68,1.64-2,0-4,1.08-5.86,1.63A.5.5,0,0,0,182.26,386.48Z" transform="translate(2)"/><path class="cls-9" d="M265.91,196.33s12.14-1.33,9.76,15c-2.17,14.85-11.34,20.67-19,16.34C253.67,220,265.91,196.33,265.91,196.33Z" transform="translate(2)"/><path class="cls-8" d="M270.33,190.54S273,204,259.67,222s-50.2,30.1-52,33.28c-2.37-5-3.35-12.43-2.35-11.69S248,186,248,186l17.67-13.67,8,8.67Z" transform="translate(2)"/><path class="cls-8" d="M146.27,189.67a105,105,0,0,0,8.42,24.93c8.81,18.4,22.31,24.65,25.53,35,1.26-6.26,3.45-14.29,3.45-14.29l-5.67-15-5.27-26.83S159,182,159.33,180.33,145,162.65,146.27,189.67Z" transform="translate(2)"/><path class="cls-10" d="M179.89,238.1s.9,21.4,0,29.4C187,286,198.5,301.33,202.5,302.67S209.35,276,209.18,269c-.16-7.5.12-9.83,0-15C209.07,249.38,179.89,238.1,179.89,238.1Z" transform="translate(2)"/><path class="cls-9" d="M209.18,254c-.11-4.62-29.29-15.9-29.29-15.9s.15,3.53.27,8.25c7.12,7.15,17.63,13.35,29,16.55C209.16,259.62,209.26,257.43,209.18,254Z" transform="translate(2)"/><path class="cls-10" d="M172.25,199.67s-8.58-10-20.58-2-3.5,38.66,20.58,29.33c7.42,18.67,43.42,38,69.42,27s33.33-72.33,22.66-91.67C254.33,143.67,178.17,121,172.25,199.67Z" transform="translate(2)"/><path class="cls-11" d="M174,127s.35-11.54,6.88-10.37c7,1.25-1,10.37-1,10.37s43.36-10.74,71.11,5c27,15.33,33.33,43,21,71.88,0,0-.5-13.88-4.5-22.38-.5,9-5.5,19.25-5.5,19.25S227.5,200,221,198c1.5-6,.5-13.5.5-13.5l-5,12.5s-15,.5-24-.5c2.5-6.5,2.67-20.91,1.12-27.91-1.55,10-5.29,23.41-16,32.16-7-4.08-15.09-2.28-22.34,0-1.86-4.23-1-17.89-1-17.89a62.65,62.65,0,0,0-2.09,17.89c-3.61,0-9.5,3.13-9.5,3.13S140,201,141.5,186.5c-2.5,4.5-5,14.25-5,14.25S128,150.5,166.5,130c-7.5-3-5.87-6.75-3-8.5C166.82,119.48,172.5,124,174,127Z" transform="translate(2)"/><path class="cls-8" d="M168.35,137.35a33.63,33.63,0,0,1,5.57-3.58c.57-.3.07-1.16-.51-.87a34.7,34.7,0,0,0-5.76,3.75C167.14,137.05,167.85,137.75,168.35,137.35Z" transform="translate(2)"/><path class="cls-8" d="M179.25,134.23c-.58-.26-1.09.6-.5.87a13.9,13.9,0,0,1,5.82,5.82.5.5,0,0,0,.86-.51A14.85,14.85,0,0,0,179.25,134.23Z" transform="translate(2)"/><path class="cls-8" d="M188.13,131.52a13.4,13.4,0,0,0-4.8-1,.5.5,0,0,0,0,1,12.66,12.66,0,0,1,4.54,1C188.47,132.72,188.73,131.75,188.13,131.52Z" transform="translate(2)"/><path class="cls-8" d="M209.83,173a48.62,48.62,0,0,1-4.09,24.12h1.14a47.6,47.6,0,0,0,4-24.12C210.77,172.37,209.77,172.36,209.83,173Z" transform="translate(2)"/><path class="cls-8" d="M238.15,199.8c6.22-15.65,6.65-32.3-1.38-47.39-.31-.57-1.17-.06-.87.51,7.91,14.86,7.4,31.22,1.29,46.61a.42.42,0,0,0,0,.24l1,0Z" transform="translate(2)"/><path class="cls-8" d="M255.83,181c0,6.72-.65,13.67-4.39,19.43l1.15,0c3.58-5.81,4.22-12.76,4.24-19.47A.5.5,0,0,0,255.83,181Z" transform="translate(2)"/><path class="cls-8" d="M173.83,199a118.27,118.27,0,0,1,1-20.17c.08-.64-.92-.63-1,0a119.62,119.62,0,0,0-1,20c.33.07.66.15,1,.25C173.82,199.07,173.84,199,173.83,199Z" transform="translate(2)"/><path class="cls-8" d="M169.1,160.59c.26-.59-.6-1.1-.86-.51a62.64,62.64,0,0,0-4.54,38.6l1-.13A61.54,61.54,0,0,1,169.1,160.59Z" transform="translate(2)"/><path class="cls-9" d="M169.83,214.17c.5-7.34-6.61-17.31-14.66-11.91-9.84,6.59,2.09,25.25,12.66,19.07C167.83,221.33,163.17,215.17,169.83,214.17Z" transform="translate(2)"/><path class="cls-9" d="M242.81,207.33s6.47,27.47-3.49,27.89C230.37,235.59,242.28,210,242.81,207.33Z" transform="translate(2)"/><path class="cls-6" d="M227.25,238.1c.26-2.94-6-.85-6.5,4.4S226.5,246.71,227.25,238.1Z" transform="translate(2)"/><path class="cls-8" d="M224.43,208.1a2.16,2.16,0,0,0-2.94-1.33c-3,1.38-2.78,7.21-1.92,9.76a2,2,0,0,0,3.66.48C224.8,214.94,225.75,210.59,224.43,208.1Z" transform="translate(2)"/><path class="cls-8" d="M228.19,206.29s-2.19-6-14.69,0C217,201,228.62,198.79,228.19,206.29Z" transform="translate(2)"/><path class="cls-8" d="M258.77,210.52a2.17,2.17,0,0,0-2.87-1.47c-3.07,1.22-3.14,7.06-2.41,9.65a2,2,0,0,0,3.63.66C258.79,217.37,260,213.07,258.77,210.52Z" transform="translate(2)"/><path class="cls-8" d="M261.18,207.29s-1.49-6-10,0C253.56,202,261.48,199.79,261.18,207.29Z" transform="translate(2)"/><path class="cls-12" d="M259.5,307.67c-6-13.17-9.39-19.32-15.69-24.24s-22.13-7.14-22.13-7.14a74,74,0,0,1-13.24,4.55c-1.08,10.33-3.25,22.72-5.94,21.83s-9.14-8.58-15.16-19.34a61.64,61.64,0,0,1-26.84-6.44l-1.62,2.78S136.67,286.33,125,291s-33.55,34.73-47.26,47.21C83,338,93,341.67,93.5,351.67c19.25,22.83,36.5-3.12,36.5-3.12l-.69,17.88,107.12-9.76.36-10,6.76,9.4,13.73-1.24S260,334.51,276,333.5C274,328,265.5,320.83,259.5,307.67Z" transform="translate(2)"/><path class="cls-8" d="M212.54,323.5c0,1.68-1,3-2.34,3s-2.34-1.36-2.34-3,1-3,2.34-3S212.54,321.82,212.54,323.5Z" transform="translate(2)"/><path class="cls-8" d="M210.2,341.67c0,1.68-1,3-2.34,3s-2.33-1.36-2.33-3,1-3,2.33-3S210.2,340,210.2,341.67Z" transform="translate(2)"/><path class="cls-13" d="M108.54,352.77c.23,1.26,2.15.73,1.92-.54-1.9-10.51-14.18-19.49-24.79-22.05l-1.56,1.68C94.22,333.82,106.7,342.64,108.54,352.77Z" transform="translate(2)"/><path class="cls-13" d="M116.93,296.51c15.94,5,17.07,21.74,17.07,21.74.38-14.79-9.6-21.53-14.44-23.92C118.71,295,117.83,295.72,116.93,296.51Z" transform="translate(2)"/><polygon class="cls-13" points="238.79 346.67 239.82 323.5 241.82 350.88 238.79 346.67"/><path class="cls-13" d="M130,348.55s4-17,4-22c-2.76,10.21-7.38,26.34-7.38,26.34Z" transform="translate(2)"/><path class="cls-13" d="M243.81,283.43a14.34,14.34,0,0,0-1.49-1c-2.51,3.65-5.26,11.55-5.53,28.7.94-6.63,1.88-20.36,7.57-27.24C244.17,283.73,244,283.57,243.81,283.43Z" transform="translate(2)"/><path class="cls-8" d="M206.25,307.67s17.75,7.83,21.5,5.58c2.61-1.56-6.83-57.05-18.54-57.05-1.55,6.26-3,25.8-3,25.8Z" transform="translate(2)"/><path class="cls-8" d="M180.26,252s-8,1.25-11.11,8.5-2.49,11-6.69,14.5-4,5.5-3,11,9.46,33.5,13.23,33.25S196,308.75,197,308.75c-4.25-2.25-5.75-16-5-18-2.75-4.25-12.21-26.08-12.11-31.54A69.41,69.41,0,0,1,180.26,252Z" transform="translate(2)"/><path class="cls-11" d="M192,290.75s-4.5,12.75-3.75,14.5,10.5,4.5,10.5,4.5-1.5,37,0,38.75,7.5-40.83,7.5-40.83,10.25-3.25,11-5c-.5-2.21-6.33-19-8-28.21-1.31,10.92-2.54,23.25-5.5,27.5C200.75,299.5,193.5,293,192,290.75Z" transform="translate(2)"/><path class="cls-8" d="M203.71,302s-1.38,16.67-1.88,21.5c1.5-5.67,2.55-19.67,3.28-21.5,1.72-2.67,2.92-9.92,2.74-16.37C207.85,285.63,206.08,296,203.71,302Z" transform="translate(2)"/><path class="cls-9" d="M77.74,338.21s-14.18,15.68-16.29,18.9,24.22,6.56,24.22,6.56L93,348.55S88.33,336.81,77.74,338.21Z" transform="translate(2)"/><path class="cls-9" d="M154.85,350.49s12.74,0,16.28,4.06,10.59,13.65,4.93,12.83C169.24,367,158.79,351.09,154.85,350.49Z" transform="translate(2)"/><polygon class="cls-10" points="178.37 380.56 183.04 386.56 182.03 379.03 178.37 380.56"/><polygon class="cls-14" points="183.04 386.56 182.76 384.48 181.75 384.9 183.04 386.56"/><path class="cls-8" d="M147.88,307.59a2,2,0,0,0-1.06,2.6l29.55,70.37L180,379l-29.56-70.38A2,2,0,0,0,147.88,307.59Z" transform="translate(2)"/><path class="cls-10" d="M127.31,351.34s-30.2-8.71-45-7.58S59.61,358.63,55.83,362.3s1.52,9.49,8.55,13.43,28.86.13,42.75-3.07,27.22-5.32,27.22-5.32,8.18,11.24,14.6,13.78,17.76,1.25,16.69-1.91c3.77-.15,8.5-.91,9.56-4.1,3,2.63,7-1.56,1.65-8.29S161,352.92,161,352.92s-5.37-3.78-15.37-3.05S133.44,351.19,127.31,351.34Z" transform="translate(2)"/><path class="cls-10" d="M276,333.5s37.35,4.42,51.69,6.21C327,346,315,349.59,315,349.59l-57.72,5.24S259,334,276,333.5Z" transform="translate(2)"/><polygon class="cls-15" points="325 307.67 305.08 412.1 237.33 370.67 237.33 375.67 308 419.67 329.67 312.33 325 307.67"/><polygon class="cls-16" points="308 419.67 450.88 392.47 467.67 295.67 329.67 312.33 308 419.67"/><polygon class="cls-5" points="314.97 360.26 237.33 370.67 305.08 412.1 314.97 360.26"/><polygon class="cls-15" points="314.97 379.17 274.62 386.18 306.34 405.5 314.97 379.17"/><polygon class="cls-15" points="317.75 362.83 283.5 367.67 297.82 377.51 314.97 374.75 317.75 362.83"/><polygon class="cls-6" points="467.67 295.67 462.33 293 325 307.67 329.67 312.33 467.67 295.67"/></g></g></g></svg>